STARTFONT 2.1
FONT -Monotype-Rockwell-Regular-I-Normal--12-120-72-72-P-65-iso8859-1
SIZE 12 72 72
FONTBOUNDINGBOX 17 15 -2 -3

STARTPROPERTIES 22
FOUNDRY "Monotype"
FAMILY_NAME "Rockwell"
WEIGHT_NAME "Regular"
SLANT "I"
SETWIDTH_NAME "Normal"
ADD_STYLE_NAME ""
PIXEL_SIZE 12
POINT_SIZE 120
RESOLUTION_X 72
RESOLUTION_Y 72
SPACING "P"
AVERAGE_WIDTH 65
CHARSET_REGISTRY "iso8859"
CHARSET_ENCODING "1"
COPYRIGHT "Copyright (c) 1996 Monotype Typography Ltd."
CAP_HEIGHT 10
X_HEIGHT 7
WEIGHT 10
QUAD_WIDTH 8
DEFAULT_CHAR 32
FONT_DESCENT 3
FONT_ASCENT 12
ENDPROPERTIES

CHARS 191

STARTCHAR space
ENCODING 32
SWIDTH 250 0
DWIDTH 4 0
BBX 0 0 0 0
BITMAP
ENDCHAR

STARTCHAR exclam
ENCODING 33
SWIDTH 281 0
DWIDTH 4 0
BBX 3 9 1 0
BITMAP
20
20
20
40
40
40
00
80
80
ENDCHAR

STARTCHAR quotedbl
ENCODING 34
SWIDTH 417 0
DWIDTH 5 0
BBX 4 4 1 5
BITMAP
90
90
90
90
ENDCHAR

STARTCHAR numbersign
ENCODING 35
SWIDTH 668 0
DWIDTH 9 0
BBX 8 9 1 0
BITMAP
12
12
FF
24
24
24
FF
48
48
ENDCHAR

STARTCHAR dollar
ENCODING 36
SWIDTH 479 0
DWIDTH 6 0
BBX 6 11 1 -1
BITMAP
10
38
54
54
50
30
28
A8
A8
70
40
ENDCHAR

STARTCHAR percent
ENCODING 37
SWIDTH 1000 0
DWIDTH 13 0
BBX 11 9 2 0
BITMAP
6040
9080
9100
9200
64C0
0920
1120
2120
40C0
ENDCHAR

STARTCHAR ampersand
ENCODING 38
SWIDTH 625 0
DWIDTH 8 0
BBX 8 9 0 0
BITMAP
18
24
28
30
57
92
8C
8C
76
ENDCHAR

STARTCHAR quoteright
ENCODING 39
SWIDTH 281 0
DWIDTH 4 0
BBX 2 3 2 6
BITMAP
C0
40
80
ENDCHAR

STARTCHAR parenleft
ENCODING 40
SWIDTH 375 0
DWIDTH 5 0
BBX 4 12 2 -3
BITMAP
10
20
20
40
40
80
80
80
80
80
40
40
ENDCHAR

STARTCHAR parenright
ENCODING 41
SWIDTH 375 0
DWIDTH 5 0
BBX 4 12 0 -3
BITMAP
20
20
10
10
10
10
10
20
20
40
40
80
ENDCHAR

STARTCHAR asterisk
ENCODING 42
SWIDTH 521 0
DWIDTH 7 0
BBX 6 5 1 4
BITMAP
10
94
78
30
D8
ENDCHAR

STARTCHAR plus
ENCODING 43
SWIDTH 667 0
DWIDTH 9 0
BBX 7 7 1 1
BITMAP
10
10
10
FE
10
10
10
ENDCHAR

STARTCHAR comma
ENCODING 44
SWIDTH 281 0
DWIDTH 4 0
BBX 2 4 0 -2
BITMAP
40
40
40
80
ENDCHAR

STARTCHAR minus
ENCODING 45
SWIDTH 667 0
DWIDTH 9 0
BBX 7 1 1 4
BITMAP
FE
ENDCHAR

STARTCHAR period
ENCODING 46
SWIDTH 281 0
DWIDTH 4 0
BBX 1 2 1 0
BITMAP
80
80
ENDCHAR

STARTCHAR slash
ENCODING 47
SWIDTH 438 0
DWIDTH 6 0
BBX 5 10 1 -1
BITMAP
08
08
10
10
20
20
40
40
80
80
ENDCHAR

STARTCHAR zero
ENCODING 48
SWIDTH 531 0
DWIDTH 7 0
BBX 6 9 1 0
BITMAP
18
24
44
44
84
88
88
90
60
ENDCHAR

STARTCHAR one
ENCODING 49
SWIDTH 531 0
DWIDTH 7 0
BBX 4 9 2 0
BITMAP
30
10
10
20
20
20
40
40
E0
ENDCHAR

STARTCHAR two
ENCODING 50
SWIDTH 531 0
DWIDTH 7 0
BBX 6 9 1 0
BITMAP
38
44
44
08
10
20
44
88
F8
ENDCHAR

STARTCHAR three
ENCODING 51
SWIDTH 531 0
DWIDTH 7 0
BBX 6 9 1 0
BITMAP
38
44
44
08
30
08
88
88
70
ENDCHAR

STARTCHAR four
ENCODING 52
SWIDTH 531 0
DWIDTH 7 0
BBX 6 9 1 0
BITMAP
04
0C
18
28
48
90
FC
10
38
ENDCHAR

STARTCHAR five
ENCODING 53
SWIDTH 531 0
DWIDTH 7 0
BBX 6 9 1 0
BITMAP
3C
24
40
70
48
08
88
90
60
ENDCHAR

STARTCHAR six
ENCODING 54
SWIDTH 531 0
DWIDTH 7 0
BBX 6 9 1 0
BITMAP
18
24
40
50
88
88
88
90
60
ENDCHAR

STARTCHAR seven
ENCODING 55
SWIDTH 531 0
DWIDTH 7 0
BBX 6 9 2 0
BITMAP
FC
88
10
10
20
20
40
40
E0
ENDCHAR

STARTCHAR eight
ENCODING 56
SWIDTH 531 0
DWIDTH 7 0
BBX 6 9 1 0
BITMAP
38
44
44
28
70
88
88
88
70
ENDCHAR

STARTCHAR nine
ENCODING 57
SWIDTH 531 0
DWIDTH 7 0
BBX 6 9 1 0
BITMAP
18
24
44
44
44
28
08
90
60
ENDCHAR

STARTCHAR colon
ENCODING 58
SWIDTH 281 0
DWIDTH 4 0
BBX 2 6 1 0
BITMAP
40
40
00
00
80
80
ENDCHAR

STARTCHAR semicolon
ENCODING 59
SWIDTH 281 0
DWIDTH 4 0
BBX 3 8 0 -2
BITMAP
20
20
00
00
40
40
40
80
ENDCHAR

STARTCHAR less
ENCODING 60
SWIDTH 667 0
DWIDTH 9 0
BBX 7 7 1 1
BITMAP
02
0C
30
C0
30
0C
02
ENDCHAR

STARTCHAR equal
ENCODING 61
SWIDTH 667 0
DWIDTH 9 0
BBX 7 4 1 2
BITMAP
FE
00
00
FE
ENDCHAR

STARTCHAR greater
ENCODING 62
SWIDTH 667 0
DWIDTH 9 0
BBX 7 7 1 1
BITMAP
80
60
18
06
18
60
80
ENDCHAR

STARTCHAR question
ENCODING 63
SWIDTH 458 0
DWIDTH 6 0
BBX 5 9 1 0
BITMAP
70
88
08
10
60
40
00
80
80
ENDCHAR

STARTCHAR at
ENCODING 64
SWIDTH 1010 0
DWIDTH 13 0
BBX 12 13 1 -3
BITMAP
0780
1840
2020
4690
4990
8890
9110
9120
9120
4EC0
4010
3060
0F80
ENDCHAR

STARTCHAR A
ENCODING 65
SWIDTH 646 0
DWIDTH 8 0
BBX 8 9 0 0
BITMAP
0F
06
0A
0A
12
3E
22
42
E7
ENDCHAR

STARTCHAR B
ENCODING 66
SWIDTH 563 0
DWIDTH 7 0
BBX 7 9 0 0
BITMAP
3C
12
12
24
3C
22
42
44
F8
ENDCHAR

STARTCHAR C
ENCODING 67
SWIDTH 719 0
DWIDTH 9 0
BBX 8 9 1 0
BITMAP
1D
23
41
40
80
80
82
44
38
ENDCHAR

STARTCHAR D
ENCODING 68
SWIDTH 708 0
DWIDTH 9 0
BBX 9 9 0 0
BITMAP
3E00
1100
1080
2080
2080
2100
4100
4200
FC00
ENDCHAR

STARTCHAR E
ENCODING 69
SWIDTH 573 0
DWIDTH 7 0
BBX 8 9 0 0
BITMAP
3F
11
11
20
3C
20
42
44
FC
ENDCHAR

STARTCHAR F
ENCODING 70
SWIDTH 521 0
DWIDTH 7 0
BBX 8 9 0 0
BITMAP
3F
11
11
20
3C
20
40
40
E0
ENDCHAR

STARTCHAR G
ENCODING 71
SWIDTH 781 0
DWIDTH 10 0
BBX 9 9 1 0
BITMAP
1E80
2180
4080
4000
8000
8700
8100
4200
3C00
ENDCHAR

STARTCHAR H
ENCODING 72
SWIDTH 677 0
DWIDTH 9 0
BBX 10 9 0 0
BITMAP
39C0
1080
1080
2100
3F00
2100
4200
4200
E700
ENDCHAR

STARTCHAR I
ENCODING 73
SWIDTH 292 0
DWIDTH 4 0
BBX 5 9 0 0
BITMAP
38
10
10
20
20
20
40
40
E0
ENDCHAR

STARTCHAR J
ENCODING 74
SWIDTH 292 0
DWIDTH 4 0
BBX 6 12 -1 -3
BITMAP
1C
08
08
10
10
10
10
20
20
20
20
C0
ENDCHAR

STARTCHAR K
ENCODING 75
SWIDTH 594 0
DWIDTH 8 0
BBX 9 9 0 0
BITMAP
3B80
1100
1200
2400
3800
2800
4400
4200
E700
ENDCHAR

STARTCHAR L
ENCODING 76
SWIDTH 490 0
DWIDTH 6 0
BBX 6 9 0 0
BITMAP
38
10
10
20
20
20
44
48
F8
ENDCHAR

STARTCHAR M
ENCODING 77
SWIDTH 833 0
DWIDTH 11 0
BBX 12 9 0 0
BITMAP
3870
1860
28A0
2940
2940
2A40
4A80
4480
E5C0
ENDCHAR

STARTCHAR N
ENCODING 78
SWIDTH 698 0
DWIDTH 9 0
BBX 10 9 0 0
BITMAP
31C0
1080
1880
2900
2900
2500
4600
4200
E200
ENDCHAR

STARTCHAR O
ENCODING 79
SWIDTH 781 0
DWIDTH 10 0
BBX 9 9 1 0
BITMAP
1E00
2100
4080
4080
8080
8100
8100
4200
3C00
ENDCHAR

STARTCHAR P
ENCODING 80
SWIDTH 542 0
DWIDTH 7 0
BBX 7 9 0 0
BITMAP
3C
12
12
22
24
38
40
40
E0
ENDCHAR

STARTCHAR Q
ENCODING 81
SWIDTH 781 0
DWIDTH 10 0
BBX 9 11 1 -2
BITMAP
1E00
2100
4080
4080
8080
8100
8100
4200
3C00
4800
0600
ENDCHAR

STARTCHAR R
ENCODING 82
SWIDTH 583 0
DWIDTH 8 0
BBX 8 9 0 0
BITMAP
3E
11
11
22
3C
28
48
44
E7
ENDCHAR

STARTCHAR S
ENCODING 83
SWIDTH 521 0
DWIDTH 7 0
BBX 8 9 0 0
BITMAP
1D
22
22
20
18
04
44
44
B8
ENDCHAR

STARTCHAR T
ENCODING 84
SWIDTH 583 0
DWIDTH 8 0
BBX 8 9 1 0
BITMAP
7F
49
89
10
10
10
20
20
70
ENDCHAR

STARTCHAR U
ENCODING 85
SWIDTH 635 0
DWIDTH 8 0
BBX 8 9 1 0
BITMAP
77
22
22
44
44
44
88
88
70
ENDCHAR

STARTCHAR V
ENCODING 86
SWIDTH 677 0
DWIDTH 9 0
BBX 8 9 2 0
BITMAP
E7
42
44
44
48
50
50
60
40
ENDCHAR

STARTCHAR W
ENCODING 87
SWIDTH 990 0
DWIDTH 13 0
BBX 13 9 2 0
BITMAP
E7B8
4210
4620
4620
4A40
5280
5280
6300
4200
ENDCHAR

STARTCHAR X
ENCODING 88
SWIDTH 635 0
DWIDTH 8 0
BBX 9 9 0 0
BITMAP
3B80
1100
1200
0C00
0800
1400
2200
4200
E700
ENDCHAR

STARTCHAR Y
ENCODING 89
SWIDTH 573 0
DWIDTH 7 0
BBX 8 9 1 0
BITMAP
E7
42
44
48
30
20
40
40
E0
ENDCHAR

STARTCHAR Z
ENCODING 90
SWIDTH 563 0
DWIDTH 7 0
BBX 8 9 0 0
BITMAP
3F
22
24
08
08
10
22
44
FC
ENDCHAR

STARTCHAR bracketleft
ENCODING 91
SWIDTH 313 0
DWIDTH 4 0
BBX 6 12 0 -3
BITMAP
1C
10
10
20
20
20
40
40
40
80
80
E0
ENDCHAR

STARTCHAR backslash
ENCODING 92
SWIDTH 438 0
DWIDTH 6 0
BBX 5 10 1 -1
BITMAP
80
80
40
40
20
20
10
10
08
08
ENDCHAR

STARTCHAR bracketright
ENCODING 93
SWIDTH 313 0
DWIDTH 4 0
BBX 6 12 -2 -3
BITMAP
1C
04
04
08
08
08
10
10
10
20
20
E0
ENDCHAR

STARTCHAR asciicircum
ENCODING 94
SWIDTH 427 0
DWIDTH 6 0
BBX 5 5 1 4
BITMAP
20
20
50
50
88
ENDCHAR

STARTCHAR underscore
ENCODING 95
SWIDTH 500 0
DWIDTH 7 0
BBX 7 1 0 -2
BITMAP
FE
ENDCHAR

STARTCHAR quoteleft
ENCODING 96
SWIDTH 281 0
DWIDTH 4 0
BBX 3 4 1 5
BITMAP
60
80
C0
C0
ENDCHAR

STARTCHAR a
ENCODING 97
SWIDTH 531 0
DWIDTH 7 0
BBX 6 6 1 0
BITMAP
78
04
74
88
98
6C
ENDCHAR

STARTCHAR b
ENCODING 98
SWIDTH 615 0
DWIDTH 8 0
BBX 8 9 0 0
BITMAP
30
10
10
2E
31
21
41
62
DC
ENDCHAR

STARTCHAR c
ENCODING 99
SWIDTH 500 0
DWIDTH 7 0
BBX 6 6 1 0
BITMAP
3C
44
80
80
88
70
ENDCHAR

STARTCHAR d
ENCODING 100
SWIDTH 604 0
DWIDTH 8 0
BBX 8 9 1 0
BITMAP
03
01
01
3A
46
82
84
8C
76
ENDCHAR

STARTCHAR e
ENCODING 101
SWIDTH 552 0
DWIDTH 7 0
BBX 6 6 1 0
BITMAP
38
44
FC
80
88
70
ENDCHAR

STARTCHAR f
ENCODING 102
SWIDTH 281 0
DWIDTH 4 0
BBX 6 9 0 0
BITMAP
0C
10
10
78
20
20
40
40
E0
ENDCHAR

STARTCHAR g
ENCODING 103
SWIDTH 604 0
DWIDTH 8 0
BBX 8 9 0 -3
BITMAP
1D
22
42
42
44
3C
04
88
70
ENDCHAR

STARTCHAR h
ENCODING 104
SWIDTH 552 0
DWIDTH 7 0
BBX 7 9 0 0
BITMAP
30
10
10
2C
32
22
44
44
EE
ENDCHAR

STARTCHAR i
ENCODING 105
SWIDTH 281 0
DWIDTH 4 0
BBX 4 9 1 0
BITMAP
10
00
00
60
20
20
40
40
E0
ENDCHAR

STARTCHAR j
ENCODING 106
SWIDTH 281 0
DWIDTH 4 0
BBX 6 12 -1 -3
BITMAP
04
00
00
18
08
08
10
10
10
20
20
C0
ENDCHAR

STARTCHAR k
ENCODING 107
SWIDTH 521 0
DWIDTH 7 0
BBX 7 9 0 0
BITMAP
30
10
10
26
28
30
50
48
EC
ENDCHAR

STARTCHAR l
ENCODING 108
SWIDTH 281 0
DWIDTH 4 0
BBX 4 9 1 0
BITMAP
30
10
10
20
20
20
40
40
E0
ENDCHAR

STARTCHAR m
ENCODING 109
SWIDTH 844 0
DWIDTH 11 0
BBX 11 6 0 0
BITMAP
6CC0
3320
2220
4440
4440
E660
ENDCHAR

STARTCHAR n
ENCODING 110
SWIDTH 552 0
DWIDTH 7 0
BBX 7 6 0 0
BITMAP
6C
32
22
44
44
E6
ENDCHAR

STARTCHAR o
ENCODING 111
SWIDTH 563 0
DWIDTH 7 0
BBX 6 6 1 0
BITMAP
38
44
84
84
88
70
ENDCHAR

STARTCHAR p
ENCODING 112
SWIDTH 604 0
DWIDTH 8 0
BBX 9 9 -1 -3
BITMAP
3700
1880
1080
2080
3100
2E00
4000
4000
E000
ENDCHAR

STARTCHAR q
ENCODING 113
SWIDTH 604 0
DWIDTH 8 0
BBX 8 9 1 -3
BITMAP
3B
46
82
84
8C
74
08
08
1C
ENDCHAR

STARTCHAR r
ENCODING 114
SWIDTH 396 0
DWIDTH 5 0
BBX 6 6 0 0
BITMAP
6C
30
20
40
40
E0
ENDCHAR

STARTCHAR s
ENCODING 115
SWIDTH 427 0
DWIDTH 6 0
BBX 5 6 1 0
BITMAP
38
48
20
10
90
E0
ENDCHAR

STARTCHAR t
ENCODING 116
SWIDTH 292 0
DWIDTH 4 0
BBX 3 8 1 0
BITMAP
20
40
E0
40
40
80
80
40
ENDCHAR

STARTCHAR u
ENCODING 117
SWIDTH 552 0
DWIDTH 7 0
BBX 6 6 1 0
BITMAP
CC
44
44
88
98
EC
ENDCHAR

STARTCHAR v
ENCODING 118
SWIDTH 479 0
DWIDTH 6 0
BBX 7 6 1 0
BITMAP
EE
44
48
50
60
40
ENDCHAR

STARTCHAR w
ENCODING 119
SWIDTH 740 0
DWIDTH 10 0
BBX 10 6 1 0
BITMAP
DDC0
4880
4900
5A00
6C00
4800
ENDCHAR

STARTCHAR x
ENCODING 120
SWIDTH 510 0
DWIDTH 7 0
BBX 7 6 0 0
BITMAP
76
24
18
30
48
DC
ENDCHAR

STARTCHAR y
ENCODING 121
SWIDTH 510 0
DWIDTH 7 0
BBX 9 9 -1 -3
BITMAP
3B80
1100
1200
1400
1800
1000
1000
2000
E000
ENDCHAR

STARTCHAR z
ENCODING 122
SWIDTH 417 0
DWIDTH 5 0
BBX 6 6 0 0
BITMAP
7C
48
10
20
48
F8
ENDCHAR

STARTCHAR braceleft
ENCODING 123
SWIDTH 333 0
DWIDTH 4 0
BBX 3 12 1 -3
BITMAP
20
40
40
40
40
80
40
40
40
40
40
20
ENDCHAR

STARTCHAR bar
ENCODING 124
SWIDTH 527 0
DWIDTH 7 0
BBX 1 12 3 -3
BITMAP
80
80
80
80
80
80
80
80
80
80
80
80
ENDCHAR

STARTCHAR braceright
ENCODING 125
SWIDTH 333 0
DWIDTH 4 0
BBX 3 12 1 -3
BITMAP
80
40
40
40
40
20
40
40
40
40
40
80
ENDCHAR

STARTCHAR asciitilde
ENCODING 126
SWIDTH 583 0
DWIDTH 8 0
BBX 8 2 0 4
BITMAP
71
8E
ENDCHAR

STARTCHAR space
ENCODING 160
SWIDTH 250 0
DWIDTH 3 0
BBX 0 0 0 0
BITMAP
ENDCHAR

STARTCHAR exclamdown
ENCODING 161
SWIDTH 281 0
DWIDTH 4 0
BBX 3 9 0 -3
BITMAP
20
20
00
40
40
40
80
80
80
ENDCHAR

STARTCHAR cent
ENCODING 162
SWIDTH 500 0
DWIDTH 7 0
BBX 6 12 1 -3
BITMAP
08
08
08
3C
54
90
A0
A8
70
40
40
40
ENDCHAR

STARTCHAR sterling
ENCODING 163
SWIDTH 458 0
DWIDTH 6 0
BBX 6 9 0 0
BITMAP
1C
24
20
20
78
20
60
A4
D8
ENDCHAR

STARTCHAR currency
ENCODING 164
SWIDTH 667 0
DWIDTH 9 0
BBX 6 6 2 1
BITMAP
B4
48
84
84
48
B4
ENDCHAR

STARTCHAR yen
ENCODING 165
SWIDTH 573 0
DWIDTH 7 0
BBX 9 9 0 0
BITMAP
7380
2100
2200
FF00
1800
1000
FE00
2000
7000
ENDCHAR

STARTCHAR brokenbar
ENCODING 166
SWIDTH 527 0
DWIDTH 7 0
BBX 1 12 3 -3
BITMAP
80
80
80
80
80
00
00
80
80
80
80
80
ENDCHAR

STARTCHAR section
ENCODING 167
SWIDTH 448 0
DWIDTH 6 0
BBX 6 12 0 -3
BITMAP
18
24
24
50
50
48
48
28
28
90
90
60
ENDCHAR

STARTCHAR dieresis
ENCODING 168
SWIDTH 333 0
DWIDTH 4 0
BBX 4 1 1 7
BITMAP
90
ENDCHAR

STARTCHAR copyright
ENCODING 169
SWIDTH 740 0
DWIDTH 10 0
BBX 9 9 1 0
BITMAP
3E00
4100
8C80
9480
9080
9480
8880
4100
3E00
ENDCHAR

STARTCHAR ordfeminine
ENCODING 170
SWIDTH 344 0
DWIDTH 4 0
BBX 3 4 1 5
BITMAP
60
20
C0
A0
ENDCHAR

STARTCHAR guillemotleft
ENCODING 171
SWIDTH 458 0
DWIDTH 6 0
BBX 7 6 0 0
BITMAP
12
24
48
90
48
24
ENDCHAR

STARTCHAR logicalnot
ENCODING 172
SWIDTH 667 0
DWIDTH 9 0
BBX 7 4 1 2
BITMAP
FE
02
02
02
ENDCHAR

STARTCHAR hyphen
ENCODING 173
SWIDTH 385 0
DWIDTH 5 0
BBX 4 1 1 3
BITMAP
F0
ENDCHAR

STARTCHAR registered
ENCODING 174
SWIDTH 740 0
DWIDTH 10 0
BBX 9 9 1 0
BITMAP
3E00
4100
B880
9480
9880
9480
B680
4100
3E00
ENDCHAR

STARTCHAR macron
ENCODING 175
SWIDTH 333 0
DWIDTH 4 0
BBX 4 1 1 7
BITMAP
F0
ENDCHAR

STARTCHAR degree
ENCODING 176
SWIDTH 396 0
DWIDTH 5 0
BBX 4 4 2 5
BITMAP
60
90
90
60
ENDCHAR

STARTCHAR plusminus
ENCODING 177
SWIDTH 667 0
DWIDTH 9 0
BBX 7 9 1 0
BITMAP
10
10
10
FE
10
10
10
00
FE
ENDCHAR

STARTCHAR twosuperior
ENCODING 178
SWIDTH 323 0
DWIDTH 4 0
BBX 4 5 1 4
BITMAP
30
50
20
40
E0
ENDCHAR

STARTCHAR threesuperior
ENCODING 179
SWIDTH 323 0
DWIDTH 4 0
BBX 4 5 1 4
BITMAP
30
10
60
20
C0
ENDCHAR

STARTCHAR acute
ENCODING 180
SWIDTH 333 0
DWIDTH 4 0
BBX 2 2 2 7
BITMAP
40
80
ENDCHAR

STARTCHAR mu
ENCODING 181
SWIDTH 552 0
DWIDTH 7 0
BBX 7 9 0 -3
BITMAP
22
22
22
44
4C
76
80
80
80
ENDCHAR

STARTCHAR paragraph
ENCODING 182
SWIDTH 542 0
DWIDTH 7 0
BBX 7 12 0 -3
BITMAP
3E
74
F4
F4
74
14
14
14
14
14
14
14
ENDCHAR

STARTCHAR periodcentered
ENCODING 183
SWIDTH 292 0
DWIDTH 4 0
BBX 1 1 2 4
BITMAP
80
ENDCHAR

STARTCHAR cedilla
ENCODING 184
SWIDTH 333 0
DWIDTH 4 0
BBX 3 3 0 -3
BITMAP
40
20
C0
ENDCHAR

STARTCHAR onesuperior
ENCODING 185
SWIDTH 323 0
DWIDTH 4 0
BBX 3 5 1 4
BITMAP
60
20
40
40
E0
ENDCHAR

STARTCHAR ordmasculine
ENCODING 186
SWIDTH 365 0
DWIDTH 5 0
BBX 4 5 1 4
BITMAP
30
50
90
A0
C0
ENDCHAR

STARTCHAR guillemotright
ENCODING 187
SWIDTH 458 0
DWIDTH 6 0
BBX 7 6 0 0
BITMAP
48
24
12
24
48
90
ENDCHAR

STARTCHAR onequarter
ENCODING 188
SWIDTH 1000 0
DWIDTH 13 0
BBX 11 9 1 0
BITMAP
6040
2080
4100
4200
E440
08C0
1140
23E0
4080
ENDCHAR

STARTCHAR onehalf
ENCODING 189
SWIDTH 1000 0
DWIDTH 13 0
BBX 9 9 2 0
BITMAP
6080
2100
4200
4400
E980
1280
2100
4280
8780
ENDCHAR

STARTCHAR threequarters
ENCODING 190
SWIDTH 1000 0
DWIDTH 13 0
BBX 10 9 2 0
BITMAP
3080
1100
6200
2400
C880
1180
2280
47C0
8100
ENDCHAR

STARTCHAR questiondown
ENCODING 191
SWIDTH 458 0
DWIDTH 6 0
BBX 5 9 0 -3
BITMAP
08
08
00
10
30
40
80
88
70
ENDCHAR

STARTCHAR Agrave
ENCODING 192
SWIDTH 646 0
DWIDTH 8 0
BBX 8 12 0 0
BITMAP
04
02
00
0F
06
0A
0A
12
3E
22
42
E7
ENDCHAR

STARTCHAR Aacute
ENCODING 193
SWIDTH 646 0
DWIDTH 8 0
BBX 8 12 0 0
BITMAP
01
02
00
0F
06
0A
0A
12
3E
22
42
E7
ENDCHAR

STARTCHAR Acircumflex
ENCODING 194
SWIDTH 646 0
DWIDTH 8 0
BBX 8 12 0 0
BITMAP
03
05
00
0F
06
0A
0A
12
3E
22
42
E7
ENDCHAR

STARTCHAR Atilde
ENCODING 195
SWIDTH 646 0
DWIDTH 8 0
BBX 9 12 0 0
BITMAP
0680
0B00
0000
0F00
0600
0A00
0A00
1200
3E00
2200
4200
E700
ENDCHAR

STARTCHAR Adieresis
ENCODING 196
SWIDTH 646 0
DWIDTH 8 0
BBX 8 11 0 0
BITMAP
05
00
0F
06
0A
0A
12
3E
22
42
E7
ENDCHAR

STARTCHAR Aring
ENCODING 197
SWIDTH 646 0
DWIDTH 8 0
BBX 8 12 0 0
BITMAP
02
05
02
0F
06
0A
0A
12
3E
22
42
E7
ENDCHAR

STARTCHAR AE
ENCODING 198
SWIDTH 969 0
DWIDTH 13 0
BBX 13 9 0 0
BITMAP
07F8
0288
0488
0900
0FE0
1100
2210
4220
E7E0
ENDCHAR

STARTCHAR Ccedilla
ENCODING 199
SWIDTH 719 0
DWIDTH 9 0
BBX 8 12 1 -3
BITMAP
1D
23
41
40
80
80
82
44
38
10
08
30
ENDCHAR

STARTCHAR Egrave
ENCODING 200
SWIDTH 573 0
DWIDTH 7 0
BBX 8 12 0 0
BITMAP
08
04
00
3F
11
11
20
3C
20
42
44
FC
ENDCHAR

STARTCHAR Eacute
ENCODING 201
SWIDTH 573 0
DWIDTH 7 0
BBX 8 12 0 0
BITMAP
02
04
00
3F
11
11
20
3C
20
42
44
FC
ENDCHAR

STARTCHAR Ecircumflex
ENCODING 202
SWIDTH 573 0
DWIDTH 7 0
BBX 8 12 0 0
BITMAP
06
0A
00
3F
11
11
20
3C
20
42
44
FC
ENDCHAR

STARTCHAR Edieresis
ENCODING 203
SWIDTH 573 0
DWIDTH 7 0
BBX 8 11 0 0
BITMAP
0A
00
3F
11
11
20
3C
20
42
44
FC
ENDCHAR

STARTCHAR Igrave
ENCODING 204
SWIDTH 292 0
DWIDTH 4 0
BBX 5 12 0 0
BITMAP
10
08
00
38
10
10
20
20
20
40
40
E0
ENDCHAR

STARTCHAR Iacute
ENCODING 205
SWIDTH 292 0
DWIDTH 4 0
BBX 5 12 0 0
BITMAP
08
10
00
38
10
10
20
20
20
40
40
E0
ENDCHAR

STARTCHAR Icircumflex
ENCODING 206
SWIDTH 292 0
DWIDTH 4 0
BBX 6 12 0 0
BITMAP
0C
14
00
38
10
10
20
20
20
40
40
E0
ENDCHAR

STARTCHAR Idieresis
ENCODING 207
SWIDTH 292 0
DWIDTH 4 0
BBX 6 11 0 0
BITMAP
14
00
38
10
10
20
20
20
40
40
E0
ENDCHAR

STARTCHAR Eth
ENCODING 208
SWIDTH 708 0
DWIDTH 9 0
BBX 9 9 0 0
BITMAP
3E00
1100
1080
2080
7880
2100
4100
4200
FC00
ENDCHAR

STARTCHAR Ntilde
ENCODING 209
SWIDTH 698 0
DWIDTH 9 0
BBX 10 12 0 0
BITMAP
0680
0B00
0000
31C0
1080
1880
2900
2900
2500
4600
4200
E200
ENDCHAR

STARTCHAR Ograve
ENCODING 210
SWIDTH 781 0
DWIDTH 10 0
BBX 9 12 1 0
BITMAP
0800
0400
0000
1E00
2100
4080
4080
8080
8100
8100
4200
3C00
ENDCHAR

STARTCHAR Oacute
ENCODING 211
SWIDTH 781 0
DWIDTH 10 0
BBX 9 12 1 0
BITMAP
0200
0400
0000
1E00
2100
4080
4080
8080
8100
8100
4200
3C00
ENDCHAR

STARTCHAR Ocircumflex
ENCODING 212
SWIDTH 781 0
DWIDTH 10 0
BBX 9 12 1 0
BITMAP
0600
0A00
0000
1E00
2100
4080
4080
8080
8100
8100
4200
3C00
ENDCHAR

STARTCHAR Otilde
ENCODING 213
SWIDTH 781 0
DWIDTH 10 0
BBX 9 12 1 0
BITMAP
0D00
1600
0000
1E00
2100
4080
4080
8080
8100
8100
4200
3C00
ENDCHAR

STARTCHAR Odieresis
ENCODING 214
SWIDTH 781 0
DWIDTH 10 0
BBX 9 11 1 0
BITMAP
0A00
0000
1E00
2100
4080
4080
8080
8100
8100
4200
3C00
ENDCHAR

STARTCHAR multiply
ENCODING 215
SWIDTH 668 0
DWIDTH 9 0
BBX 6 6 2 1
BITMAP
84
48
30
30
48
84
ENDCHAR

STARTCHAR Oslash
ENCODING 216
SWIDTH 781 0
DWIDTH 10 0
BBX 9 9 1 0
BITMAP
1E80
2100
4280
4480
8880
9100
A100
4200
BC00
ENDCHAR

STARTCHAR Ugrave
ENCODING 217
SWIDTH 635 0
DWIDTH 8 0
BBX 8 12 1 0
BITMAP
08
04
00
77
22
22
44
44
44
88
88
70
ENDCHAR

STARTCHAR Uacute
ENCODING 218
SWIDTH 635 0
DWIDTH 8 0
BBX 8 12 1 0
BITMAP
04
08
00
77
22
22
44
44
44
88
88
70
ENDCHAR

STARTCHAR Ucircumflex
ENCODING 219
SWIDTH 635 0
DWIDTH 8 0
BBX 8 12 1 0
BITMAP
06
0A
00
77
22
22
44
44
44
88
88
70
ENDCHAR

STARTCHAR Udieresis
ENCODING 220
SWIDTH 635 0
DWIDTH 8 0
BBX 8 11 1 0
BITMAP
12
00
77
22
22
44
44
44
88
88
70
ENDCHAR

STARTCHAR Yacute
ENCODING 221
SWIDTH 573 0
DWIDTH 7 0
BBX 8 12 1 0
BITMAP
04
08
00
E7
42
44
48
30
20
40
40
E0
ENDCHAR

STARTCHAR Thorn
ENCODING 222
SWIDTH 542 0
DWIDTH 7 0
BBX 7 9 0 0
BITMAP
38
10
1C
22
22
22
7C
40
E0
ENDCHAR

STARTCHAR germandbls
ENCODING 223
SWIDTH 615 0
DWIDTH 8 0
BBX 8 9 0 0
BITMAP
0E
11
11
22
26
21
41
42
EC
ENDCHAR

STARTCHAR agrave
ENCODING 224
SWIDTH 531 0
DWIDTH 7 0
BBX 6 9 1 0
BITMAP
20
10
00
78
04
74
88
98
6C
ENDCHAR

STARTCHAR aacute
ENCODING 225
SWIDTH 531 0
DWIDTH 7 0
BBX 6 9 1 0
BITMAP
08
10
00
78
04
74
88
98
6C
ENDCHAR

STARTCHAR acircumflex
ENCODING 226
SWIDTH 531 0
DWIDTH 7 0
BBX 6 9 1 0
BITMAP
18
28
00
78
04
74
88
98
6C
ENDCHAR

STARTCHAR atilde
ENCODING 227
SWIDTH 531 0
DWIDTH 7 0
BBX 7 9 1 0
BITMAP
1A
2C
00
78
04
74
88
98
6C
ENDCHAR

STARTCHAR adieresis
ENCODING 228
SWIDTH 531 0
DWIDTH 7 0
BBX 6 8 1 0
BITMAP
28
00
78
04
74
88
98
6C
ENDCHAR

STARTCHAR aring
ENCODING 229
SWIDTH 531 0
DWIDTH 7 0
BBX 6 9 1 0
BITMAP
10
28
10
78
04
74
88
98
6C
ENDCHAR

STARTCHAR ae
ENCODING 230
SWIDTH 865 0
DWIDTH 11 0
BBX 10 6 1 0
BITMAP
7B80
0440
77C0
8800
9880
6700
ENDCHAR

STARTCHAR ccedilla
ENCODING 231
SWIDTH 500 0
DWIDTH 7 0
BBX 6 9 1 -3
BITMAP
3C
44
80
80
88
70
20
10
60
ENDCHAR

STARTCHAR egrave
ENCODING 232
SWIDTH 552 0
DWIDTH 7 0
BBX 6 9 1 0
BITMAP
20
10
00
38
44
FC
80
88
70
ENDCHAR

STARTCHAR eacute
ENCODING 233
SWIDTH 552 0
DWIDTH 7 0
BBX 6 9 1 0
BITMAP
08
10
00
38
44
FC
80
88
70
ENDCHAR

STARTCHAR ecircumflex
ENCODING 234
SWIDTH 552 0
DWIDTH 7 0
BBX 6 9 1 0
BITMAP
18
28
00
38
44
FC
80
88
70
ENDCHAR

STARTCHAR edieresis
ENCODING 235
SWIDTH 552 0
DWIDTH 7 0
BBX 6 8 1 0
BITMAP
28
00
38
44
FC
80
88
70
ENDCHAR

STARTCHAR igrave
ENCODING 236
SWIDTH 281 0
DWIDTH 4 0
BBX 3 9 1 0
BITMAP
40
20
00
60
20
20
40
40
E0
ENDCHAR

STARTCHAR iacute
ENCODING 237
SWIDTH 281 0
DWIDTH 4 0
BBX 4 9 1 0
BITMAP
10
20
00
60
20
20
40
40
E0
ENDCHAR

STARTCHAR icircumflex
ENCODING 238
SWIDTH 281 0
DWIDTH 4 0
BBX 4 9 1 0
BITMAP
30
50
00
60
20
20
40
40
E0
ENDCHAR

STARTCHAR idieresis
ENCODING 239
SWIDTH 281 0
DWIDTH 4 0
BBX 4 8 1 0
BITMAP
50
00
60
20
20
40
40
E0
ENDCHAR

STARTCHAR eth
ENCODING 240
SWIDTH 635 0
DWIDTH 8 0
BBX 7 9 1 0
BITMAP
26
18
24
3C
44
84
84
88
70
ENDCHAR

STARTCHAR ntilde
ENCODING 241
SWIDTH 552 0
DWIDTH 7 0
BBX 7 9 0 0
BITMAP
1A
2C
00
6C
32
22
44
44
E6
ENDCHAR

STARTCHAR ograve
ENCODING 242
SWIDTH 563 0
DWIDTH 7 0
BBX 6 9 1 0
BITMAP
20
10
00
38
44
84
84
88
70
ENDCHAR

STARTCHAR oacute
ENCODING 243
SWIDTH 563 0
DWIDTH 7 0
BBX 6 9 1 0
BITMAP
08
10
00
38
44
84
84
88
70
ENDCHAR

STARTCHAR ocircumflex
ENCODING 244
SWIDTH 563 0
DWIDTH 7 0
BBX 6 9 1 0
BITMAP
18
28
00
38
44
84
84
88
70
ENDCHAR

STARTCHAR otilde
ENCODING 245
SWIDTH 563 0
DWIDTH 7 0
BBX 7 9 1 0
BITMAP
1A
2C
00
38
44
84
84
88
70
ENDCHAR

STARTCHAR odieresis
ENCODING 246
SWIDTH 563 0
DWIDTH 7 0
BBX 6 8 1 0
BITMAP
28
00
38
44
84
84
88
70
ENDCHAR

STARTCHAR divide
ENCODING 247
SWIDTH 668 0
DWIDTH 9 0
BBX 7 7 1 1
BITMAP
10
00
00
FE
00
00
10
ENDCHAR

STARTCHAR oslash
ENCODING 248
SWIDTH 563 0
DWIDTH 7 0
BBX 8 8 0 -1
BITMAP
01
1E
26
4A
52
64
78
80
ENDCHAR

STARTCHAR ugrave
ENCODING 249
SWIDTH 552 0
DWIDTH 7 0
BBX 6 9 1 0
BITMAP
20
10
00
CC
44
44
88
98
EC
ENDCHAR

STARTCHAR uacute
ENCODING 250
SWIDTH 552 0
DWIDTH 7 0
BBX 6 9 1 0
BITMAP
08
10
00
CC
44
44
88
98
EC
ENDCHAR

STARTCHAR ucircumflex
ENCODING 251
SWIDTH 552 0
DWIDTH 7 0
BBX 6 9 1 0
BITMAP
18
28
00
CC
44
44
88
98
EC
ENDCHAR

STARTCHAR udieresis
ENCODING 252
SWIDTH 552 0
DWIDTH 7 0
BBX 6 8 1 0
BITMAP
28
00
CC
44
44
88
98
EC
ENDCHAR

STARTCHAR yacute
ENCODING 253
SWIDTH 510 0
DWIDTH 7 0
BBX 9 12 -1 -3
BITMAP
0200
0400
0000
3B80
1100
1200
1400
1800
1000
1000
2000
E000
ENDCHAR

STARTCHAR thorn
ENCODING 254
SWIDTH 604 0
DWIDTH 8 0
BBX 9 12 -1 -3
BITMAP
1800
0800
0800
1700
1880
1080
2080
3100
2E00
4000
4000
E000
ENDCHAR

STARTCHAR ydieresis
ENCODING 255
SWIDTH 510 0
DWIDTH 7 0
BBX 9 11 -1 -3
BITMAP
0A00
0000
3B80
1100
1200
1400
1800
1000
1000
2000
E000
ENDCHAR
ENDFONT
